<svg version="1" xmlns="http://www.w3.org/2000/svg" width="250.667" height="250.667" viewBox="0 0 188 188"><path d="M63.7 2.3c-2 1.4-2 1 1.9 11.2.4 1.1.8 2.2.9 2.5.1.3.7 1.8 1.4 3.4 1.7 4.2 2.3 18.5.9 23-1.2 3.9-9.4 13-10.9 12-.5-.3-.9-.1-.9.5 0 1.9-11.9 3.8-28.2 4.5-5.8.3-12.6 1-15 1.6-4.5 1.2-10.3 5.6-12.5 9.6C0 73 .6 77 2.4 77.1c.6 0 2 .2 3.1.5 1.1.2 4.2.6 6.9.9 2.6.3 5.8 1.1 7 1.7 1.1.6 2.2 1 2.4.9 1-.8 10.5 5.1 14.3 8.9 8.2 8.2 7.9 17-1.3 38.5-8 18.7-9 22-8.6 26.9.5 4.2 3.9 10 6.5 11 2.4 1 5.7-1.5 11.3-8.3 12-14.7 21.3-17.8 34.2-11.3 5.5 2.8 7 4.2 11.8 11.3 3 4.4 6 8.9 6.6 10 .6 1 1.9 2.8 2.9 3.9s1.5 2 1.1 2c-.3 0 .7 1.5 2.3 3.2 1.6 1.8 3.8 4.2 4.8 5.4 4.2 4.7 13.6 6.9 16.7 3.9 1.3-1.4 1.2-2.2-.9-8.3-1.3-3.7-2.6-8.3-2.9-10.2-.2-1.9-.5-3.7-.6-4-.7-1.5-.4-5.6.5-6.2.7-.5.6-.8 0-.8-1.2 0-1.3-4-.1-5.8.4-.7.4-1.7.1-2.2-.3-.6-.1-1 .4-1 .6 0 1.1-.8 1.1-1.8 0-2 6.5-9.4 7.4-8.4.3.3.6.1.6-.5 0-.9 3.8-2.8 9.5-4.8 2.4-.9 6.8-1.5 11.3-1.7 1.7-.1 3.2-.4 3.2-.7 0-.3 2.4-.6 5.3-.7 10.5-.1 19.3-1.2 22-2.7 4.7-2.5 7.2-7 6.2-11.2-.4-1.9-1.9-2.5-6.5-2.7-1.9-.1-10.5-2.3-15-3.9-8.6-3.1-16-10.3-17.8-17.7-1.2-4.6-1-11.1.4-13.3.3-.5.7-1.8.9-2.8.2-1.1 1.8-5 3.6-8.8 1.8-3.7 3.3-7 3.4-7.3 0-.3 1.8-3.9 3.9-8 4.8-9.5 5.5-15.1 2.8-21.2-1.5-3.4-2.7-4.7-4.8-5.2-3.1-.8-2.2-1.6-12.9 10.8-4.2 5-13.6 11.7-17 12.2-.5.1-2.4.4-4.2.7-1.7.3-3.5.2-3.8-.1-.4-.4-1-.7-1.4-.7-2.6 0-11.6-6.3-15.7-11.1-2.7-3.1-6.1-7-7.6-8.8-1.5-1.7-2.8-3.7-2.8-4.4 0-.6-.4-1.2-1-1.2-.5 0-1-.7-1-1.5s-.3-1.5-.8-1.5c-.4 0-1.6-1.6-2.7-3.5-2.1-4-6.5-8.9-10.6-12.1C73.6 1 66.3.3 63.7 2.3zm39.2 78.3c6.9 4.1 9.8 14.3 6.2 21.7-5.7 11.7-24.1 12.3-29.7.9-2.7-5.4-2.4-13.1.6-17.6 4.7-6.7 15.8-9.2 22.9-5z"/></svg>